<mxfile host="65bd71144e">
    <diagram id="kwLDsWHWYtzINdy_r8E7" name="Page-1">
        <mxGraphModel dx="2730" dy="1125" grid="1" gridSize="10" guides="1" tooltips="1" connect="1" arrows="1" fold="1" page="1" pageScale="1" pageWidth="850" pageHeight="1100" math="0" shadow="0">
            <root>
                <mxCell id="0"/>
                <mxCell id="1" parent="0"/>
                <mxCell id="5" style="edgeStyle=none;html=1;" edge="1" parent="1" source="2" target="4">
                    <mxGeometry relative="1" as="geometry"/>
                </mxCell>
                <mxCell id="2" value="Rules&lt;div&gt;(Static Data)&lt;/div&gt;" style="rounded=0;whiteSpace=wrap;html=1;" vertex="1" parent="1">
                    <mxGeometry x="150" y="150" width="120" height="60" as="geometry"/>
                </mxCell>
                <mxCell id="6" style="edgeStyle=none;html=1;" edge="1" parent="1" source="3" target="4">
                    <mxGeometry relative="1" as="geometry"/>
                </mxCell>
                <mxCell id="3" value="Deductions&lt;div&gt;(Memory, Pencil Marks)&lt;/div&gt;" style="rounded=0;whiteSpace=wrap;html=1;" vertex="1" parent="1">
                    <mxGeometry x="150" y="300" width="120" height="60" as="geometry"/>
                </mxCell>
                <mxCell id="7" style="edgeStyle=none;html=1;" edge="1" parent="1" source="4" target="8">
                    <mxGeometry relative="1" as="geometry">
                        <mxPoint x="560" y="260" as="targetPoint"/>
                    </mxGeometry>
                </mxCell>
                <mxCell id="4" value="Logic Steps" style="rounded=0;whiteSpace=wrap;html=1;" vertex="1" parent="1">
                    <mxGeometry x="350" y="230" width="120" height="60" as="geometry"/>
                </mxCell>
                <mxCell id="8" value="Deductions" style="rounded=0;whiteSpace=wrap;html=1;" vertex="1" parent="1">
                    <mxGeometry x="560" y="230" width="120" height="60" as="geometry"/>
                </mxCell>
                <mxCell id="13" style="edgeStyle=none;html=1;" edge="1" parent="1" source="10" target="12">
                    <mxGeometry relative="1" as="geometry">
                        <mxPoint x="60.00138916295248" y="542.2508448974736" as="targetPoint"/>
                    </mxGeometry>
                </mxCell>
                <mxCell id="38" style="edgeStyle=none;html=1;" edge="1" parent="1" source="10" target="37">
                    <mxGeometry relative="1" as="geometry">
                        <mxPoint x="152.8013218147613" y="547.9363928851233" as="targetPoint"/>
                    </mxGeometry>
                </mxCell>
                <mxCell id="40" style="edgeStyle=none;html=1;" edge="1" parent="1" source="10" target="39">
                    <mxGeometry relative="1" as="geometry"/>
                </mxCell>
                <mxCell id="45" style="edgeStyle=none;html=1;" edge="1" parent="1" source="10" target="44">
                    <mxGeometry relative="1" as="geometry"/>
                </mxCell>
                <mxCell id="10" value="Rules&lt;div&gt;(Static Data)&lt;/div&gt;" style="rounded=0;whiteSpace=wrap;html=1;" vertex="1" parent="1">
                    <mxGeometry x="71.63999999999999" y="407.5" width="120" height="90" as="geometry"/>
                </mxCell>
                <mxCell id="16" style="edgeStyle=none;html=1;" edge="1" parent="1" source="11" target="14">
                    <mxGeometry relative="1" as="geometry"/>
                </mxCell>
                <mxCell id="17" style="edgeStyle=none;html=1;" edge="1" parent="1" source="11" target="15">
                    <mxGeometry relative="1" as="geometry"/>
                </mxCell>
                <mxCell id="28" style="edgeStyle=none;html=1;" edge="1" parent="1" source="11" target="27">
                    <mxGeometry relative="1" as="geometry"/>
                </mxCell>
                <mxCell id="11" value="Deductions&lt;div&gt;(Memory, Pencil Marks)&lt;/div&gt;&lt;div&gt;(True Statements about the Puzzle)&lt;/div&gt;" style="rounded=0;whiteSpace=wrap;html=1;" vertex="1" parent="1">
                    <mxGeometry x="-290" y="460" width="120" height="110" as="geometry"/>
                </mxCell>
                <mxCell id="12" value="check function&lt;div&gt;(digits) -&amp;gt; isValid&lt;/div&gt;" style="ellipse;whiteSpace=wrap;html=1;" vertex="1" parent="1">
                    <mxGeometry x="-70" y="542.5" width="120" height="80" as="geometry"/>
                </mxCell>
                <mxCell id="14" value="&lt;span style=&quot;color: rgb(63, 63, 63);&quot;&gt;lifetime / stickiness&lt;/span&gt;" style="ellipse;whiteSpace=wrap;html=1;" vertex="1" parent="1">
                    <mxGeometry x="-350" y="690" width="120" height="80" as="geometry"/>
                </mxCell>
                <mxCell id="15" value="&lt;span style=&quot;color: rgb(63, 63, 63);&quot;&gt;data&lt;/span&gt;" style="ellipse;whiteSpace=wrap;html=1;" vertex="1" parent="1">
                    <mxGeometry x="-200" y="690" width="120" height="80" as="geometry"/>
                </mxCell>
                <mxCell id="20" style="edgeStyle=none;html=1;" edge="1" parent="1" source="18" target="19">
                    <mxGeometry relative="1" as="geometry">
                        <Array as="points">
                            <mxPoint x="620" y="680"/>
                        </Array>
                    </mxGeometry>
                </mxCell>
                <mxCell id="22" style="edgeStyle=none;html=1;" edge="1" parent="1" source="18" target="21">
                    <mxGeometry relative="1" as="geometry"/>
                </mxCell>
                <mxCell id="24" style="edgeStyle=none;html=1;" edge="1" parent="1" source="18" target="23">
                    <mxGeometry relative="1" as="geometry"/>
                </mxCell>
                <mxCell id="26" style="edgeStyle=none;html=1;" edge="1" parent="1" source="18" target="25">
                    <mxGeometry relative="1" as="geometry"/>
                </mxCell>
                <mxCell id="30" style="edgeStyle=none;html=1;" edge="1" parent="1" source="18" target="29">
                    <mxGeometry relative="1" as="geometry"/>
                </mxCell>
                <mxCell id="18" value="Logic Step" style="rounded=0;whiteSpace=wrap;html=1;" vertex="1" parent="1">
                    <mxGeometry x="600" y="460" width="120" height="90" as="geometry"/>
                </mxCell>
                <mxCell id="19" value="required Rules" style="ellipse;whiteSpace=wrap;html=1;" vertex="1" parent="1">
                    <mxGeometry x="550" y="700" width="120" height="80" as="geometry"/>
                </mxCell>
                <mxCell id="21" value="match function" style="ellipse;whiteSpace=wrap;html=1;" vertex="1" parent="1">
                    <mxGeometry x="680" y="650" width="120" height="80" as="geometry"/>
                </mxCell>
                <mxCell id="23" value="deduction function" style="ellipse;whiteSpace=wrap;html=1;" vertex="1" parent="1">
                    <mxGeometry x="800" y="610" width="120" height="80" as="geometry"/>
                </mxCell>
                <mxCell id="25" value="some tagging system&lt;div&gt;based on inputs and behaviour&lt;/div&gt;" style="ellipse;whiteSpace=wrap;html=1;" vertex="1" parent="1">
                    <mxGeometry x="410" y="670" width="130" height="100" as="geometry"/>
                </mxCell>
                <mxCell id="27" value="has interfaces&lt;div&gt;No Digit X in Linear Set&lt;br&gt;-&amp;gt; No Digit X in Set&lt;/div&gt;&lt;div&gt;&lt;br&gt;&lt;/div&gt;&lt;div&gt;or inheritance&lt;/div&gt;&lt;div&gt;&lt;br&gt;&lt;/div&gt;&lt;div&gt;or Properties for this?&lt;/div&gt;&lt;div&gt;isLine: bool&lt;/div&gt;&lt;div&gt;&lt;br&gt;&lt;/div&gt;&lt;div&gt;or Logic Steps to convert&lt;/div&gt;" style="ellipse;whiteSpace=wrap;html=1;" vertex="1" parent="1">
                    <mxGeometry x="-520" y="680" width="120" height="320" as="geometry"/>
                </mxCell>
                <mxCell id="29" value="might be able to suggest missing inputs" style="ellipse;whiteSpace=wrap;html=1;" vertex="1" parent="1">
                    <mxGeometry x="860" y="480" width="120" height="80" as="geometry"/>
                </mxCell>
                <mxCell id="36" value="seperate terms&lt;div&gt;for Deduction and&lt;/div&gt;&lt;div&gt;Deduction Type / Interface&lt;/div&gt;" style="ellipse;shape=cloud;whiteSpace=wrap;html=1;" vertex="1" parent="1">
                    <mxGeometry x="-510" y="360" width="240" height="110" as="geometry"/>
                </mxCell>
                <mxCell id="37" value="display data&lt;div&gt;(Rules Text, Renderer Data)&lt;/div&gt;" style="ellipse;whiteSpace=wrap;html=1;" vertex="1" parent="1">
                    <mxGeometry x="71.64" y="552.5" width="178.36" height="80" as="geometry"/>
                </mxCell>
                <mxCell id="39" value="data" style="ellipse;whiteSpace=wrap;html=1;" vertex="1" parent="1">
                    <mxGeometry x="270" y="510" width="120" height="80" as="geometry"/>
                </mxCell>
                <mxCell id="41" value="Deduction Pool" style="rhombus;whiteSpace=wrap;html=1;" vertex="1" parent="1">
                    <mxGeometry x="70" y="860" width="250" height="210" as="geometry"/>
                </mxCell>
                <mxCell id="42" value="Rules Pool" style="rhombus;whiteSpace=wrap;html=1;" vertex="1" parent="1">
                    <mxGeometry x="145" y="870" width="100" height="80" as="geometry"/>
                </mxCell>
                <mxCell id="43" value="Logic Step Pool" style="rhombus;whiteSpace=wrap;html=1;" vertex="1" parent="1">
                    <mxGeometry x="320" y="930" width="160" height="140" as="geometry"/>
                </mxCell>
                <mxCell id="44" value="maybe is a Deduction&lt;div&gt;(There is an Arrow at Cells X)&lt;/div&gt;" style="ellipse;whiteSpace=wrap;html=1;" vertex="1" parent="1">
                    <mxGeometry x="310" y="412.5" width="120" height="80" as="geometry"/>
                </mxCell>
            </root>
        </mxGraphModel>
    </diagram>
</mxfile>